<svg width="467" height="297" viewBox="0 0 467 297" fill="none" xmlns="http://www.w3.org/2000/svg">
<path d="M102.25 97.1875H78.8125V66.9375H60.9375V97.1875H37.375V19.4375H60.9375V48.125H78.8125V19.4375H102.25V97.1875ZM106.125 15.625H75V44.3125H64.75V15.625H33.625V101H64.75V70.8125H75V101H106.125V15.625ZM150.688 62.5C150.604 58.625 149.833 56.0417 148.375 54.75C146.917 53.4167 145.042 52.75 142.75 52.75C137.458 52.75 134.812 56 134.812 62.5H150.688ZM172.812 78.5C171.562 83.9583 168.458 88.6458 163.5 92.5625C158.458 96.3958 151.667 98.3125 143.125 98.3125C133.583 98.3125 125.958 95.5833 120.25 90.125C114.583 84.6667 111.75 77.875 111.75 69.75C111.75 61.2083 114.542 54.125 120.125 48.5C125.583 42.625 133.042 39.6875 142.5 39.6875C151.458 39.6875 158.792 42.4583 164.5 48C170.125 53.5417 172.938 60.9583 172.938 70.25C172.938 70.7083 172.938 71.1875 172.938 71.6875C172.938 72.1875 172.896 72.7917 172.812 73.5H134.938C134.938 77.0833 135.542 79.7292 136.75 81.4375C137.958 83.1458 140.25 84 143.625 84C148.5 84 151.333 81.6875 152.125 77.0625L172.812 78.5ZM176.688 70.25C176.688 59.7917 173.479 51.4792 167.062 45.3125V45.4375C160.854 39.1458 152.667 36 142.5 36C132.083 36 123.688 39.2708 117.312 45.8125C111.062 52.3125 107.938 60.2917 107.938 69.75C107.938 78.9583 111.125 86.6458 117.5 92.8125C123.917 98.9375 132.458 102 143.125 102C152.417 102 159.979 99.8333 165.812 95.5C168.604 93.2917 170.979 90.5 172.938 87.125C174.938 83.75 176.438 79.7083 177.438 75H176.438C176.521 74.0833 176.583 73.1458 176.625 72.1875C176.667 71.1875 176.688 70.5417 176.688 70.25ZM143.625 80.25C142.375 80.25 141.396 80.0208 140.688 79.5625C140.021 79.1042 139.479 78.3542 139.062 77.3125H147.625C146.583 79.2708 145.25 80.25 143.625 80.25ZM142.75 56.4375C144.292 56.4375 145.438 57.1667 146.188 58.625H139.188C139.938 57.1667 141.125 56.4375 142.75 56.4375ZM180.938 97.3125V40.9375H198.125V52.625C200.167 44.1667 204.771 39.9375 211.938 39.9375C212.354 39.9375 212.771 39.9583 213.188 40C213.646 40.0417 214.208 40.1042 214.875 40.1875V59.8125C213.583 59.4375 212.271 59.25 210.938 59.25C204.188 59.25 200.812 63.3125 200.812 71.4375V97.3125H180.938ZM204.25 101V71.4375C204.25 65.8958 206.479 63.125 210.938 63.125C211.521 63.125 212.354 63.2083 213.438 63.375C214.562 63.5417 216.188 63.875 218.312 64.375V36.5C218.146 36.5 217.562 36.4792 216.562 36.4375C215.604 36.3958 214.917 36.375 214.5 36.375C214.083 36.2917 213.646 36.25 213.188 36.25C212.771 36.25 212.354 36.25 211.938 36.25C207.938 36.25 204.479 37.3542 201.562 39.5625V37.25H177.375V101H204.25ZM258.062 62.5C257.979 58.625 257.208 56.0417 255.75 54.75C254.292 53.4167 252.417 52.75 250.125 52.75C244.833 52.75 242.188 56 242.188 62.5H258.062ZM280.188 78.5C278.938 83.9583 275.833 88.6458 270.875 92.5625C265.833 96.3958 259.042 98.3125 250.5 98.3125C240.958 98.3125 233.333 95.5833 227.625 90.125C221.958 84.6667 219.125 77.875 219.125 69.75C219.125 61.2083 221.917 54.125 227.5 48.5C232.958 42.625 240.417 39.6875 249.875 39.6875C258.833 39.6875 266.167 42.4583 271.875 48C277.5 53.5417 280.312 60.9583 280.312 70.25C280.312 70.7083 280.312 71.1875 280.312 71.6875C280.312 72.1875 280.271 72.7917 280.188 73.5H242.312C242.312 77.0833 242.917 79.7292 244.125 81.4375C245.333 83.1458 247.625 84 251 84C255.875 84 258.708 81.6875 259.5 77.0625L280.188 78.5ZM284.062 70.25C284.062 59.7917 280.854 51.4792 274.438 45.3125V45.4375C268.229 39.1458 260.042 36 249.875 36C239.458 36 231.062 39.2708 224.688 45.8125C218.438 52.3125 215.312 60.2917 215.312 69.75C215.312 78.9583 218.5 86.6458 224.875 92.8125C231.292 98.9375 239.833 102 250.5 102C259.792 102 267.354 99.8333 273.188 95.5C275.979 93.2917 278.354 90.5 280.312 87.125C282.312 83.75 283.812 79.7083 284.812 75H283.812C283.896 74.0833 283.958 73.1458 284 72.1875C284.042 71.1875 284.062 70.5417 284.062 70.25ZM251 80.25C249.75 80.25 248.771 80.0208 248.062 79.5625C247.396 79.1042 246.854 78.3542 246.438 77.3125H255C253.958 79.2708 252.625 80.25 251 80.25ZM250.125 56.4375C251.667 56.4375 252.812 57.1667 253.562 58.625H246.562C247.312 57.1667 248.5 56.4375 250.125 56.4375ZM302.812 42.75L294.375 58.125H287.312L293.562 44.3125H287.312V28.0625H302.812V42.75ZM305.875 24.5625H284.25V47.75H288.562L282.312 61.5625H296L305.875 43.625V24.5625ZM326.75 78.875C327.792 82.9583 331.729 85 338.562 85C344.271 85 347.125 83.8958 347.125 81.6875C347.125 80.8125 346.562 80.0833 345.438 79.5C344.938 79.1667 344.021 78.8958 342.688 78.6875C341.354 78.4792 339.667 78.1875 337.625 77.8125C326.208 76.2708 319.042 73.8125 316.125 70.4375C313.417 67.1042 312.062 63.3333 312.062 59.125C312.062 53.1667 314.396 48.4792 319.062 45.0625C323.938 41.4792 330.25 39.6875 338 39.6875C351.583 39.6875 360.292 44.6458 364.125 54.5625L347.375 57.625C345.75 54.2917 342.5 52.625 337.625 52.625C335.25 52.625 333.479 52.9792 332.312 53.6875C331.188 54.3542 330.625 54.9792 330.625 55.5625C330.625 57.3542 332.375 58.5 335.875 59C340.458 59.5417 344.312 60.0625 347.438 60.5625C350.562 61.0625 352.938 61.6042 354.562 62.1875C357.688 63.1458 360.542 65.125 363.125 68.125C365.417 70.9167 366.562 74.3333 366.562 78.375C366.562 84.5 363.979 89.3542 358.812 92.9375C353.646 96.5208 346.583 98.3125 337.625 98.3125C322.458 98.3125 313 92.6458 309.25 81.3125L326.75 78.875ZM304.375 78.0625C309.5 94.0208 320.583 102 337.625 102C347.792 102 355.771 99.8958 361.562 95.6875C367.396 91.4792 370.312 85.7083 370.312 78.375C370.312 73.4167 368.854 69.1875 365.938 65.6875C364.729 64.3125 363.479 63.125 362.188 62.125C360.938 61.0833 359.583 60.2083 358.125 59.5L369.125 57.5C363.667 43.1667 353.292 36 338 36C329.5 36 322.479 38 316.938 42C311.104 46.25 308.188 51.9583 308.188 59.125C308.188 64 309.896 68.5208 313.312 72.6875C314.438 74.0625 315.938 75.2708 317.812 76.3125L304.375 78.0625Z" fill="black"/>
<path d="M139.812 236.938H122.312V220.312H139.812V236.938ZM142.875 217.188H119.25V240H142.875V217.188ZM172.625 214.938C172.625 217.562 173.167 219.583 174.25 221C175.375 222.417 176.833 223.125 178.625 223.125C181.292 223.125 183.104 221.875 184.062 219.375C185.062 216.833 185.562 212.958 185.562 207.75C185.562 201.667 184.979 197.417 183.812 195C182.646 192.583 180.958 191.375 178.75 191.375C177.375 191.375 176 191.938 174.625 193.062C173.292 194.146 172.625 195.917 172.625 198.375V214.938ZM150.5 254.312V178.312H170.812V186.625C173.646 180.292 178.979 177.125 186.812 177.125C193.479 177.125 198.708 179.792 202.5 185.125C206.292 190.458 208.188 197.792 208.188 207.125C208.188 211.708 207.667 215.854 206.625 219.562C205.625 223.271 204.208 226.438 202.375 229.062C200.542 231.646 198.292 233.646 195.625 235.062C193 236.479 190.104 237.188 186.938 237.188C180.729 237.188 175.958 234.792 172.625 230V254.312H150.5ZM176.312 258.188V238.438C179.479 240.146 183.021 241 186.938 241C190.688 241 194.104 240.229 197.188 238.688C200.271 237.104 202.896 234.833 205.062 231.875C207.229 228.917 208.917 225.354 210.125 221.188C211.333 217.021 211.938 212.333 211.938 207.125C211.938 201.917 211.354 197.229 210.188 193.062C209.021 188.854 207.354 185.312 205.188 182.438C203.021 179.521 200.375 177.271 197.25 175.688C194.125 174.104 190.646 173.312 186.812 173.312C181.938 173.312 177.854 174.333 174.562 176.375V174.438H146.75V258.188H176.312ZM176.312 214.938V198.375C176.312 197.208 176.583 196.396 177.125 195.938C177.708 195.438 178.25 195.188 178.75 195.188C179.792 195.188 180.562 196.104 181.062 197.938C181.562 199.771 181.812 203.042 181.812 207.75C181.812 211.667 181.583 214.562 181.125 216.438C180.667 218.312 179.833 219.25 178.625 219.25C177.083 219.25 176.312 217.812 176.312 214.938ZM233.75 236.188H215.562V158.438H233.75V236.188ZM236.938 154.625H212.375V240H236.938V154.625ZM279.125 209.938C269.667 210.938 264.938 213.917 264.938 218.875C264.938 222.292 266.812 224 270.562 224C273.021 224 275.062 223.312 276.688 221.938C278.312 220.562 279.125 217.458 279.125 212.625V209.938ZM281.062 236.312C280.479 233.979 280.188 231.375 280.188 228.5C276.146 234.375 270.125 237.312 262.125 237.312C255.625 237.312 250.625 235.646 247.125 232.312C243.792 228.896 242.125 224.979 242.125 220.562C242.125 214.646 244.812 209.896 250.188 206.312C252.938 204.354 256.708 202.854 261.5 201.812C266.333 200.729 272.208 199.979 279.125 199.562V198.375C279.125 195.917 278.562 194.271 277.438 193.438C276.354 192.562 274.708 192.125 272.5 192.125C267.375 192.125 264.521 194.208 263.938 198.375L243.688 196.5C246.521 184.625 256.333 178.688 273.125 178.688C277.75 178.688 281.958 179.167 285.75 180.125C289.542 181.042 292.542 182.479 294.75 184.438C297.042 186.312 298.583 188.312 299.375 190.438C300.125 192.688 300.5 196.792 300.5 202.75V225.25C300.5 229.625 301.062 233.312 302.188 236.312H281.062ZM307.562 240C305.354 234.208 304.25 229.292 304.25 225.25V202.75C304.25 196.417 303.771 191.938 302.812 189.312C301.812 186.396 299.938 183.792 297.188 181.5H297.312C294.771 179.292 291.375 177.667 287.125 176.625C282.917 175.542 278.25 175 273.125 175C254.458 175 243.104 183.229 239.062 199.688L252 200.938C251.25 201.312 250.542 201.688 249.875 202.062C249.25 202.438 248.646 202.833 248.062 203.25C241.562 207.542 238.312 213.312 238.312 220.562C238.312 223.354 238.812 225.938 239.812 228.312C240.854 230.646 242.354 232.833 244.312 234.875C248.438 238.958 254.375 241 262.125 241C268 241 273.042 239.521 277.25 236.562C277.5 237.729 277.792 238.875 278.125 240H307.562ZM274.125 219.125L274.25 219C273.167 219.875 271.938 220.312 270.562 220.312C269.354 220.312 268.75 219.833 268.75 218.875C268.75 216.75 270.979 215.25 275.438 214.375C275.271 216.958 274.833 218.542 274.125 219.125ZM272.5 195.812C273.333 195.812 273.979 195.958 274.438 196.25C273.646 196.333 272.854 196.396 272.062 196.438C271.312 196.479 270.604 196.542 269.938 196.625C270.271 196.458 270.646 196.292 271.062 196.125C271.521 195.917 272 195.812 272.5 195.812ZM364.438 215.188C363.521 221.812 360.771 227.167 356.188 231.25C351.646 235.292 345.521 237.312 337.812 237.312C329.271 237.312 322.312 234.625 316.938 229.25C311.562 223.875 308.875 216.958 308.875 208.5C308.875 199.625 311.521 192.5 316.812 187.125C322.021 181.5 328.938 178.688 337.562 178.688C345.062 178.688 351.208 180.833 356 185.125C360.792 189.375 363.479 194.688 364.062 201.062L344.875 202.75C344.125 196.792 341.896 193.812 338.188 193.812C335.812 193.812 334.083 194.875 333 197C331.958 199.125 331.438 202.917 331.438 208.375C331.438 213 331.958 216.417 333 218.625C334.083 220.833 336 221.938 338.75 221.938C342.5 221.938 344.833 219.125 345.75 213.5L364.438 215.188ZM342.438 209.562C341.688 215.354 340.458 218.25 338.75 218.25C337.375 218.25 336.417 217.438 335.875 215.812C335.375 214.188 335.125 211.708 335.125 208.375C335.125 204.292 335.375 201.458 335.875 199.875C336.417 198.292 337.188 197.5 338.188 197.5C339.729 197.5 340.896 200.625 341.688 206.875L368.188 204.438C367.146 194.354 363.896 186.958 358.438 182.25C353.062 177.417 346.104 175 337.562 175C328.021 175 320.208 178.146 314.125 184.438C308.167 190.688 305.188 198.708 305.188 208.5C305.188 217.792 308.208 225.562 314.25 231.812C320.417 237.938 328.271 241 337.812 241C342.188 241 346.146 240.312 349.688 238.938C353.229 237.521 356.292 235.521 358.875 232.938C361.5 230.312 363.646 227.208 365.312 223.625C366.979 220.042 368.104 216.062 368.688 211.688L342.438 209.562ZM406.938 201.5C406.854 197.625 406.083 195.042 404.625 193.75C403.167 192.417 401.292 191.75 399 191.75C393.708 191.75 391.062 195 391.062 201.5H406.938ZM429.062 217.5C427.812 222.958 424.708 227.646 419.75 231.562C414.708 235.396 407.917 237.312 399.375 237.312C389.833 237.312 382.208 234.583 376.5 229.125C370.833 223.667 368 216.875 368 208.75C368 200.208 370.792 193.125 376.375 187.5C381.833 181.625 389.292 178.688 398.75 178.688C407.708 178.688 415.042 181.458 420.75 187C426.375 192.542 429.188 199.958 429.188 209.25C429.188 209.708 429.188 210.188 429.188 210.688C429.188 211.188 429.146 211.792 429.062 212.5H391.188C391.188 216.083 391.792 218.729 393 220.438C394.208 222.146 396.5 223 399.875 223C404.75 223 407.583 220.688 408.375 216.062L429.062 217.5ZM432.938 209.25C432.938 198.792 429.729 190.479 423.312 184.312V184.438C417.104 178.146 408.917 175 398.75 175C388.333 175 379.938 178.271 373.562 184.812C367.312 191.312 364.188 199.292 364.188 208.75C364.188 217.958 367.375 225.646 373.75 231.812C380.167 237.938 388.708 241 399.375 241C408.667 241 416.229 238.833 422.062 234.5C424.854 232.292 427.229 229.5 429.188 226.125C431.188 222.75 432.688 218.708 433.688 214H432.688C432.771 213.083 432.833 212.146 432.875 211.188C432.917 210.188 432.938 209.542 432.938 209.25ZM399.875 219.25C398.625 219.25 397.646 219.021 396.938 218.562C396.271 218.104 395.729 217.354 395.312 216.312H403.875C402.833 218.271 401.5 219.25 399.875 219.25ZM399 195.438C400.542 195.438 401.688 196.167 402.438 197.625H395.438C396.188 196.167 397.375 195.438 399 195.438Z" fill="black"/>
<g filter="url(#filter0_dii_6_131)">
<path d="M71.6133 119.373C68.6966 119.373 67.2383 117.983 67.2383 115.203C67.2383 113.927 67.8991 111.626 69.2207 108.299C70.5423 104.926 71.6816 102.306 72.6387 100.438C74.8262 96.0625 77.0592 93.0319 79.3379 91.3457C82.9837 88.6569 97.2253 86.2188 122.062 84.0312C132.863 83.1198 140.725 82.6641 145.646 82.6641C150.568 82.6641 154.055 82.7324 156.105 82.8691C158.202 83.0059 160.367 83.2565 162.6 83.6211C164.833 83.9401 167.066 84.373 169.299 84.9199C171.532 85.4212 173.651 86.0592 175.656 86.834C179.986 88.5202 183.016 90.6165 184.748 93.123C190.171 101.007 192.883 107.433 192.883 112.4C192.883 117.96 188.645 123.406 180.168 128.738C177.616 130.379 174.882 132.02 171.965 133.66C161.346 139.402 155.126 142.798 153.303 143.846C157.131 151.274 164.628 158.953 175.793 166.883C177.115 167.794 178.163 168.478 178.938 168.934C182.355 170.939 186.389 170.62 191.037 167.977C192.313 167.202 193.612 166.814 194.934 166.814C196.255 166.814 197.417 167.316 198.42 168.318C199.423 169.275 199.924 170.346 199.924 171.531C199.924 176.954 196.301 182.788 189.055 189.031C183.677 193.68 178.824 196.004 174.494 196.004C170.985 196.004 163.352 190.854 151.594 180.555C144.94 174.721 139.54 169.503 135.393 164.9C131.245 160.298 128.397 156.88 126.848 154.646C125.298 152.368 124.523 150.408 124.523 148.768C124.523 147.127 124.911 145.669 125.686 144.393C126.506 143.117 127.6 141.886 128.967 140.701C131.109 138.878 134.162 136.941 138.127 134.891C142.092 132.794 145.327 130.812 147.834 128.943C150.34 127.075 152.505 125.138 154.328 123.133C158.339 118.895 160.344 115.066 160.344 111.648C160.344 109.415 159.66 107.547 158.293 106.043C155.786 103.354 153.462 102.01 151.32 102.01C147.629 102.01 143.117 102.26 137.785 102.762L129.445 117.527C118.827 136.805 111.581 154.168 107.707 169.617C106.158 175.633 100.301 178.641 90.1387 178.641C81.7533 178.641 76.3984 176.681 74.0742 172.762C73.2995 171.44 73.0033 170.164 73.1855 168.934C73.4134 167.658 74.0286 166.017 75.0312 164.012C76.0339 161.961 77.401 159.409 79.1328 156.355L85.2168 145.965L92.668 133.729L101.076 120.535L109.826 107.41C93.9212 110.828 82.3229 114.52 75.0312 118.484C73.9375 119.077 72.7982 119.373 71.6133 119.373ZM321.057 125.662C322.515 125.662 323.244 126.893 323.244 129.354C323.244 133.592 320.282 139.083 314.357 145.828L310.461 149.793C298.658 161.596 287.538 169.458 277.102 173.377C270.63 175.792 265.982 175.678 263.156 173.035C260.832 170.802 258.986 167.202 257.619 162.234L255.979 156.287L241.418 165.242L233.01 170.027C222.984 175.496 215.464 178.23 210.451 178.23C204.025 178.23 198.671 175.747 194.387 170.779C190.285 166.085 188.234 160.639 188.234 154.441C188.234 148.335 190.673 142.889 195.549 138.104C202.521 131.268 213.527 125.001 228.566 119.305C242.785 113.973 254.27 111.307 263.02 111.307C265.982 111.307 267.463 112.765 267.463 115.682C267.463 117.687 267.076 119.191 266.301 120.193C265.526 121.196 263.931 122.221 261.516 123.27L252.902 126.961C240.142 132.293 230.799 137.83 224.875 143.572C223.189 145.167 222.346 146.717 222.346 148.221C222.346 149.725 223.553 150.477 225.969 150.477C228.339 150.477 233.853 147.924 242.512 142.82L248.186 139.471C256.981 134.184 264.341 131.541 270.266 131.541C275.279 131.541 278.605 133.751 280.246 138.172C280.656 139.357 281.044 140.564 281.408 141.795C281.773 142.98 282.137 144.051 282.502 145.008C283.322 147.241 284.051 148.357 284.689 148.357C285.373 148.357 286.33 148.038 287.561 147.4C288.791 146.717 290.135 145.874 291.594 144.871C293.098 143.823 294.647 142.684 296.242 141.453L304.514 134.822C311.851 128.715 317.365 125.662 321.057 125.662ZM350.246 110.418C350.702 111.329 350.93 112.537 350.93 114.041C350.93 115.499 350.178 117.163 348.674 119.031C349.859 120.262 351.363 121.697 353.186 123.338C355.054 124.933 356.854 126.688 358.586 128.602C362.779 133.296 364.875 137.785 364.875 142.068C364.875 144.894 362.938 148.335 359.064 152.391C357.88 153.667 356.581 154.852 355.168 155.945C359.908 154.122 365.604 150.499 372.258 145.076L380.256 138.514C384.904 134.64 388.003 132.407 389.553 131.814C391.148 131.222 392.583 130.926 393.859 130.926C395.135 130.926 396.366 131.245 397.551 131.883C398.781 132.521 399.396 133.569 399.396 135.027C399.396 136.44 399.169 137.83 398.713 139.197C398.257 140.519 397.71 141.749 397.072 142.889C396.161 144.529 394.839 146.215 393.107 147.947C388.322 152.459 383.674 156.606 379.162 160.389C374.696 164.126 370.07 167.339 365.285 170.027C355.168 175.678 343.957 178.504 331.652 178.504C324.771 178.504 318.801 176.749 313.742 173.24C311.646 171.782 310.028 170.278 308.889 168.729C307.795 167.133 307.248 165.903 307.248 165.037C307.248 164.126 307.544 163.191 308.137 162.234C308.729 161.232 309.527 160.206 310.529 159.158C311.532 158.11 312.671 157.062 313.947 156.014C315.269 154.965 316.613 154.031 317.98 153.211C321.171 151.342 323.54 150.408 325.09 150.408C326.685 150.408 327.893 150.613 328.713 151.023C329.533 151.388 330.285 151.798 330.969 152.254C332.837 153.53 334.159 154.168 334.934 154.168C336.802 154.168 337.736 152.892 337.736 150.34C337.736 147.97 336.483 145.122 333.977 141.795C332.974 140.428 331.926 139.083 330.832 137.762C329.738 136.44 328.827 135.141 328.098 133.865C326.639 135.551 324.816 137.283 322.629 139.061L315.998 144.666C311.395 148.631 307.134 150.522 303.215 150.34C300.936 150.158 299.797 147.628 299.797 142.752C299.797 141.886 299.865 141.043 300.002 140.223C300.23 138.81 301.62 137.101 304.172 135.096C306.724 133.09 308.57 131.723 309.709 130.994C310.894 130.219 311.896 129.536 312.717 128.943L319.963 124.021C319.963 119.373 322.652 115.112 328.029 111.238C333.133 107.592 338.192 105.77 343.205 105.77C346.395 105.77 348.742 107.319 350.246 110.418Z" fill="url(#paint0_linear_6_131)"/>
</g>
<defs>
<filter id="filter0_dii_6_131" x="0.438278" y="49.2641" width="465.758" height="246.94" filterUnits="userSpaceOnUse" color-interpolation-filters="sRGB">
<feFlood flood-opacity="0" result="BackgroundImageFix"/>
<feColorMatrix in="SourceAlpha" type="matrix" values="0 0 0 0 0 0 0 0 0 0 0 0 0 0 0 0 0 0 127 0" result="hardAlpha"/>
<feOffset dy="33.4"/>
<feGaussianBlur stdDeviation="33.4"/>
<feColorMatrix type="matrix" values="0 0 0 0 0.2 0 0 0 0 0.0854902 0 0 0 0 0.0313726 0 0 0 0.2 0"/>
<feBlend mode="normal" in2="BackgroundImageFix" result="effect1_dropShadow_6_131"/>
<feBlend mode="normal" in="SourceGraphic" in2="effect1_dropShadow_6_131" result="shape"/>
<feColorMatrix in="SourceAlpha" type="matrix" values="0 0 0 0 0 0 0 0 0 0 0 0 0 0 0 0 0 0 127 0" result="hardAlpha"/>
<feOffset dy="11.1333"/>
<feGaussianBlur stdDeviation="5.56667"/>
<feComposite in2="hardAlpha" operator="arithmetic" k2="-1" k3="1"/>
<feColorMatrix type="matrix" values="0 0 0 0 1 0 0 0 0 0.495843 0 0 0 0 0.181961 0 0 0 1 0"/>
<feBlend mode="normal" in2="shape" result="effect2_innerShadow_6_131"/>
<feColorMatrix in="SourceAlpha" type="matrix" values="0 0 0 0 0 0 0 0 0 0 0 0 0 0 0 0 0 0 127 0" result="hardAlpha"/>
<feOffset dy="-11.1333"/>
<feGaussianBlur stdDeviation="5.56667"/>
<feComposite in2="hardAlpha" operator="arithmetic" k2="-1" k3="1"/>
<feColorMatrix type="matrix" values="0 0 0 0 0.8 0 0 0 0 0.341961 0 0 0 0 0.12549 0 0 0 1 0"/>
<feBlend mode="normal" in2="effect2_innerShadow_6_131" result="effect3_innerShadow_6_131"/>
</filter>
<linearGradient id="paint0_linear_6_131" x1="226" y1="46" x2="226" y2="221" gradientUnits="userSpaceOnUse">
<stop stop-color="#FF7A2D"/>
<stop offset="1" stop-color="#D65C22"/>
</linearGradient>
</defs>
</svg>
